<svg width="20" height="20" viewBox="0 0 20 20" fill="none" xmlns="http://www.w3.org/2000/svg">
<path fill-rule="evenodd" clip-rule="evenodd" d="M19.8579 9.92885C19.8579 15.4124 15.4126 19.8577 9.92909 19.8577C4.44554 19.8577 0.000244141 15.4124 0.000244141 9.92885C0.000244141 4.4453 4.44554 0 9.92909 0C15.4126 0 19.8579 4.4453 19.8579 9.92885ZM14.6477 7.50885C15.1277 7.45186 15.5854 7.32425 16.0109 7.13558C15.6928 7.6115 15.2905 8.02938 14.8264 8.36389C14.831 8.46549 14.8333 8.56796 14.8333 8.6708C14.8333 11.8073 12.4461 15.4235 8.08078 15.4235C6.7406 15.4235 5.49281 15.0308 4.44308 14.3572C4.62839 14.3793 4.81777 14.3904 5.00892 14.3904C6.12113 14.3904 7.14431 14.0112 7.9567 13.3745C6.91794 13.3552 6.04166 12.669 5.73971 11.7264C5.88449 11.754 6.03299 11.7687 6.18626 11.7687C6.40237 11.7687 6.61246 11.7398 6.81139 11.6853C5.72591 11.4674 4.9075 10.5083 4.9075 9.35841C4.9075 9.3485 4.9075 9.33841 4.90768 9.32832C5.2275 9.50655 5.5937 9.61327 5.98254 9.62549C5.34609 9.2 4.92679 8.47327 4.92679 7.65009C4.92679 7.21522 5.04396 6.80726 5.24821 6.45681C6.41883 7.8931 8.16768 8.83788 10.1401 8.93681C10.0994 8.76301 10.0783 8.58195 10.0783 8.39593C10.0783 7.08549 11.1411 6.02266 12.4516 6.02266C13.1346 6.02266 13.7514 6.3108 14.1843 6.77186C14.7247 6.66549 15.2328 6.46814 15.6914 6.19611C15.5139 6.75062 15.1378 7.21522 14.6477 7.50885Z" fill="white"/>
</svg>
